<?xml version="1.0" encoding="utf-8"?>
<!-- Generator: Adobe Illustrator 16.0.0, SVG Export Plug-In . SVG Version: 6.00 Build 0)  -->
<!DOCTYPE svg PUBLIC "-//W3C//DTD SVG 1.1//EN" "http://www.w3.org/Graphics/SVG/1.1/DTD/svg11.dtd">
<svg version="1.1" id="Layer_1" xmlns="http://www.w3.org/2000/svg" xmlns:xlink="http://www.w3.org/1999/xlink" x="0px" y="0px"
	 width="128px" height="128px" viewBox="0 0 128 128" enable-background="new 0 0 128 128" xml:space="preserve">
<g>
	<g>
		<g>
			<g>
				<path fill="#282D33" d="M64.08,125.837c-23.622,0-42.839-19.36-42.839-43.157c0-8.569,2.487-16.85,7.192-23.946l3.321,2.202
					c-4.271,6.442-6.529,13.962-6.529,21.744c0,21.6,17.43,39.173,38.854,39.173c21.424,0,38.855-17.573,38.855-39.173
					c0-3.633-0.493-7.229-1.465-10.688l3.837-1.078c1.069,3.81,1.612,7.769,1.612,11.766
					C106.92,106.477,87.701,125.837,64.08,125.837z"/>
			</g>
			<g>
				<path fill="#282D33" d="M64.08,125.837c-14.369,0-25.624-18.957-25.624-43.157c0-5.563,0.611-10.978,1.817-16.093l3.878,0.914
					c-1.135,4.815-1.711,9.923-1.711,15.179c0,21.6,9.708,39.173,21.639,39.173c11.923,0,21.623-17.573,21.623-39.173
					c0-4.951-0.512-9.778-1.519-14.35l3.891-0.858c1.07,4.853,1.612,9.969,1.612,15.208C89.688,106.88,78.439,125.837,64.08,125.837
					z"/>
			</g>
			<g>
				<rect x="62.087" y="67.64" fill="#282D33" width="3.984" height="56.205"/>
			</g>
			<g>
				<path fill="#282D33" d="M102.263,99.179H24.504l-0.484-1.295c-1.844-4.934-2.779-10.05-2.779-15.205
					c0-5.159,0.936-10.277,2.782-15.213l0.484-1.293h73.471v3.984H27.295c-1.374,4.084-2.07,8.288-2.07,12.521
					c0,4.229,0.695,8.432,2.067,12.515h74.97V99.179z"/>
			</g>
		</g>
	</g>
	<g>
		<g>
			<g>
				<path fill="#282D33" d="M66.461,70.1l-2.454-0.508c-5.711-1.182-11.791-3.294-18.59-6.457
					c-10.365-4.823-14.256-9.06-14.355-15.634c-0.025-2.614-0.049-4.009-0.075-5.401c-0.025-1.408-0.05-2.814-0.075-5.447
					l3.985-0.038c0.025,2.617,0.05,4.014,0.075,5.414c0.025,1.4,0.051,2.805,0.076,5.423c0.051,3.425,1.012,6.935,12.051,12.07
					c5.541,2.577,10.56,4.423,15.261,5.604L61.98,49.027l3.984-0.093L66.461,70.1z"/>
			</g>
			<g>
				<path fill="#282D33" d="M62.436,70.124l-0.493-21.097l3.984-0.093l0.378,16.171c4.706-1.276,9.71-3.224,15.219-5.92
					c10.94-5.35,11.832-8.876,11.816-12.311c-0.024-2.611-0.048-3.698-0.073-4.795c-0.025-1.095-0.051-2.199-0.076-4.814
					l3.985-0.039c0.024,2.587,0.049,3.68,0.074,4.762c0.025,1.109,0.051,2.209,0.075,4.858c0.03,6.584-3.778,10.896-14.051,15.919
					c-6.724,3.29-12.763,5.521-18.462,6.817L62.436,70.124z"/>
			</g>
		</g>
		<g>
			<path fill="#282D33" d="M64.237,51.953L0,27.684L63.761,2.163L128,26.439L64.237,51.953z M10.992,27.576l53.204,20.102
				l52.813-21.133L63.802,6.438L10.992,27.576z"/>
		</g>
		<g>
			<polygon fill="#282D33" points="101.391,54.216 101.261,35.81 69.555,25.588 70.776,21.796 105.224,32.901 105.376,54.188 			"/>
		</g>
		<g>
			<path fill="#282D33" d="M63.89,26.305c-4.783,0-8.277-2.18-8.308-5.183c-0.026-3,3.563-5.294,8.348-5.34l0.148-0.001
				c4.785,0,8.276,2.179,8.303,5.179c0.029,2.997-3.56,5.296-8.348,5.344L63.89,26.305z M59.604,21.082
				c0.325,0.416,1.823,1.237,4.286,1.237h0.104c2.526-0.026,4.047-0.892,4.365-1.321c-0.324-0.413-1.825-1.231-4.281-1.231h-0.109
				C61.447,19.791,59.927,20.652,59.604,21.082z"/>
		</g>
		<g>
			<path fill="#282D33" d="M110.819,73.68H96.665V61.117c0-4.429,3.175-8.031,7.077-8.031s7.077,3.603,7.077,8.031V73.68z
				 M100.649,69.693h6.186v-8.576c0-2.193-1.416-4.047-3.093-4.047s-3.093,1.854-3.093,4.047V69.693z"/>
		</g>
	</g>
</g>
</svg>
